<?xml version="1.0" encoding="UTF-8" standalone="no"?>
<!DOCTYPE svg PUBLIC "-//W3C//DTD SVG 1.1//EN" "http://www.w3.org/Graphics/SVG/1.1/DTD/svg11.dtd">
<svg width="100%" height="100%" viewBox="0 0 512 512" version="1.1" xmlns="http://www.w3.org/2000/svg" xmlns:xlink="http://www.w3.org/1999/xlink" xml:space="preserve" xmlns:serif="http://www.serif.com/" style="fill-rule:evenodd;clip-rule:evenodd;stroke-linejoin:round;stroke-miterlimit:2;">
    <g transform="matrix(1,0,0,1,-2827.87,-640.936)">
        <g id="Starter" transform="matrix(1,0,0,1,2827.87,640.936)">
            <rect x="0" y="0" width="512" height="512" style="fill:none;"/>
            <g transform="matrix(1,0,0,1,0,-6.72142)">
                <g transform="matrix(0.195083,-6.57452e-18,6.57452e-18,0.195083,197.942,206.075)">
                    <circle cx="297.608" cy="255.914" r="107.047" style="fill:rgb(170,170,170);"/>
                </g>
                <g transform="matrix(0.687714,0,0,-0.687714,51.331,325.432)">
                    <path d="M297.608,148.867C356.689,148.867 404.655,196.833 404.655,255.914C404.655,314.995 311.16,453.662 297.608,453.662C284.055,453.662 190.561,314.995 190.561,255.914C190.561,196.833 238.527,148.867 297.608,148.867Z" style="fill:rgb(226,226,226);"/>
                </g>
                <g transform="matrix(0.282065,-0.282065,0.282065,0.282065,-44.7646,137.309)">
                    <path d="M297.608,148.867C356.689,148.867 404.655,196.833 404.655,255.914C404.655,314.995 311.16,453.662 297.608,453.662C284.055,453.662 190.561,314.995 190.561,255.914C190.561,196.833 238.527,148.867 297.608,148.867Z" style="fill:rgb(170,170,170);"/>
                </g>
                <g transform="matrix(0.19945,0.345458,-0.345458,0.19945,435.694,-16.2562)">
                    <path d="M297.608,148.867C356.689,148.867 404.655,196.833 404.655,255.914C404.655,314.995 311.16,453.662 297.608,453.662C284.055,453.662 190.561,314.995 190.561,255.914C190.561,196.833 238.527,148.867 297.608,148.867Z" style="fill:rgb(93,93,93);"/>
                </g>
                <g transform="matrix(0.19945,0.345458,0.345458,-0.19945,-48.758,337.035)">
                    <path d="M297.608,148.867C356.689,148.867 404.655,196.833 404.655,255.914C404.655,314.995 311.16,453.662 297.608,453.662C284.055,453.662 190.561,314.995 190.561,255.914C190.561,196.833 238.527,148.867 297.608,148.867Z" style="fill:rgb(170,170,170);"/>
                </g>
                <g transform="matrix(0.19945,-0.345458,-0.345458,-0.19945,435.694,542.657)">
                    <path d="M297.608,148.867C356.689,148.867 404.655,196.833 404.655,255.914C404.655,314.995 311.16,453.662 297.608,453.662C284.055,453.662 190.561,314.995 190.561,255.914C190.561,196.833 238.527,148.867 297.608,148.867Z" style="fill:rgb(170,170,170);"/>
                </g>
                <g transform="matrix(-0.687714,8.42206e-17,8.42206e-17,0.687714,460.669,200.011)">
                    <path d="M297.608,148.867C356.689,148.867 404.655,196.833 404.655,255.914C404.655,314.995 311.16,453.662 297.608,453.662C284.055,453.662 190.561,314.995 190.561,255.914C190.561,196.833 238.527,148.867 297.608,148.867Z" style="fill:rgb(93,93,93);"/>
                </g>
                <g transform="matrix(5.25962e-17,-0.687714,-0.687714,-5.25962e-17,325.432,467.87)">
                    <path d="M297.608,148.867C356.689,148.867 404.655,196.833 404.655,255.914C404.655,314.995 311.16,453.662 297.608,453.662C284.055,453.662 190.561,314.995 190.561,255.914C190.561,196.833 238.527,148.867 297.608,148.867Z" style="fill:rgb(170,170,170);"/>
                </g>
                <g transform="matrix(-5.25962e-17,-0.687714,0.687714,-5.25962e-17,186.568,467.87)">
                    <path d="M297.608,148.867C356.689,148.867 404.655,196.833 404.655,255.914C404.655,314.995 311.16,453.662 297.608,453.662C284.055,453.662 190.561,314.995 190.561,255.914C190.561,196.833 238.527,148.867 297.608,148.867Z" style="fill:rgb(226,226,226);"/>
                </g>
            </g>
        </g>
    </g>
</svg>
